<svg xmlns="http://www.w3.org/2000/svg" width="1200" height="520" viewBox="0 0 1200 520" role="img" aria-labelledby="title desc">
  <title id="title">Autoregressive decoding</title>
  <desc id="desc">A simplified diagram showing one target model pass producing one accepted token, repeated sequentially.</desc>
  <defs>
    <style>
      .bg { fill: #f7f4ed; }
      .panel { fill: #fffdf7; stroke: #cfc8ba; stroke-width: 2; }
      .ink { fill: #181612; font-family: ui-sans-serif, system-ui, -apple-system, BlinkMacSystemFont, "Segoe UI", sans-serif; }
      .muted { fill: #6b6254; font-family: ui-monospace, "SFMono-Regular", Consolas, monospace; }
      .box-title { fill: #181612; font-family: ui-sans-serif, system-ui, -apple-system, BlinkMacSystemFont, "Segoe UI", sans-serif; text-anchor: middle; }
      .box-sub { fill: #6b6254; font-family: ui-monospace, "SFMono-Regular", Consolas, monospace; text-anchor: middle; }
      .accent { fill: #0f6f77; }
      .arrow-line { stroke: #5c554a; stroke-width: 3; fill: none; stroke-linecap: round; stroke-linejoin: round; }
      .arrow-head { fill: #5c554a; }
      .dash { stroke: #b8ad9b; stroke-width: 2; stroke-dasharray: 8 8; fill: none; }
    </style>
  </defs>

  <rect class="bg" width="1200" height="520" rx="24"/>

  <text class="ink" x="56" y="72" font-size="34" font-weight="650">Autoregressive decode</text>
  <text class="muted" x="56" y="112" font-size="18">one target model pass gives one accepted token</text>

  <rect class="panel" x="72" y="188" width="220" height="118" rx="18"/>
  <text class="box-title" x="182" y="238" font-size="24" font-weight="650">context</text>
  <text class="box-sub" x="182" y="274" font-size="17">prompt + KV cache</text>

  <path class="arrow-line" d="M292 247 L385 247"/>
  <path class="arrow-head" d="M410 247 L385 234 L385 260 Z"/>

  <rect class="panel" x="430" y="168" width="280" height="158" rx="20"/>
  <text class="box-title" x="570" y="228" font-size="25" font-weight="650">target model</text>
  <text class="box-sub" x="570" y="265" font-size="17">full forward pass</text>
  <rect class="accent" x="485" y="287" width="170" height="8" rx="4"/>

  <path class="arrow-line" d="M710 247 L810 247"/>
  <path class="arrow-head" d="M835 247 L810 234 L810 260 Z"/>

  <rect class="panel" x="855" y="188" width="166" height="118" rx="18"/>
  <text class="box-title" x="938" y="238" font-size="24" font-weight="650">token</text>
  <text class="box-sub" x="938" y="274" font-size="17">+1</text>

  <path class="arrow-line" d="M1021 247 C1110 247 1102 397 940 417 C650 452 290 427 210 333"/>
  <path class="arrow-head" d="M188 309 L214 320 L201 346 Z"/>

  <path class="dash" d="M430 344 L710 344"/>
  <text class="muted" x="458" y="382" font-size="16">the GPU pays this cost one token at a time</text>
  <text class="muted" x="454" y="456" font-size="17">append token, then run again</text>
</svg>
